<svg width="176" height="27" viewBox="0 0 176 27" fill="none" xmlns="http://www.w3.org/2000/svg">
<path d="M19.568 3.152V20H15.464V9.896L11.696 20H8.384L4.592 9.872V20H0.488V3.152H5.336L10.064 14.816L14.744 3.152H19.568ZM36.1993 6.608L27.7993 26.36H23.3833L26.4553 19.544L21.0072 6.608H25.5913L28.6873 14.984L31.7593 6.608H36.1993ZM54.7713 6.464C56.4353 6.464 57.7553 6.968 58.7313 7.976C59.7233 8.984 60.2193 10.384 60.2193 12.176V20H56.1393V12.728C56.1393 11.864 55.9073 11.2 55.4433 10.736C54.9953 10.256 54.3713 10.016 53.5713 10.016C52.7713 10.016 52.1393 10.256 51.6753 10.736C51.2273 11.2 51.0033 11.864 51.0033 12.728V20H46.9233V12.728C46.9233 11.864 46.6913 11.2 46.2273 10.736C45.7793 10.256 45.1553 10.016 44.3553 10.016C43.5553 10.016 42.9233 10.256 42.4593 10.736C42.0113 11.2 41.7873 11.864 41.7873 12.728V20H37.6833V6.608H41.7873V8.288C42.2033 7.728 42.7473 7.288 43.4193 6.968C44.0913 6.632 44.8513 6.464 45.6993 6.464C46.7073 6.464 47.6033 6.68 48.3873 7.112C49.1873 7.544 49.8113 8.16 50.2593 8.96C50.7233 8.224 51.3553 7.624 52.1553 7.16C52.9553 6.696 53.8273 6.464 54.7713 6.464ZM65.1536 5.216C64.4336 5.216 63.8416 5.008 63.3776 4.592C62.9296 4.16 62.7056 3.632 62.7056 3.008C62.7056 2.368 62.9296 1.84 63.3776 1.424C63.8416 0.991999 64.4336 0.775999 65.1536 0.775999C65.8576 0.775999 66.4336 0.991999 66.8816 1.424C67.3456 1.84 67.5776 2.368 67.5776 3.008C67.5776 3.632 67.3456 4.16 66.8816 4.592C66.4336 5.008 65.8576 5.216 65.1536 5.216ZM67.1936 6.608V20H63.0896V6.608H67.1936ZM78.3277 6.464C79.8957 6.464 81.1437 6.976 82.0717 8C83.0157 9.008 83.4877 10.4 83.4877 12.176V20H79.4077V12.728C79.4077 11.832 79.1757 11.136 78.7117 10.64C78.2477 10.144 77.6237 9.896 76.8397 9.896C76.0557 9.896 75.4317 10.144 74.9677 10.64C74.5037 11.136 74.2717 11.832 74.2717 12.728V20H70.1677V6.608H74.2717V8.384C74.6877 7.792 75.2477 7.328 75.9517 6.992C76.6557 6.64 77.4477 6.464 78.3277 6.464ZM85.5236 13.28C85.5236 11.904 85.7796 10.696 86.2916 9.656C86.8196 8.616 87.5316 7.816 88.4276 7.256C89.3236 6.696 90.3236 6.416 91.4276 6.416C92.3076 6.416 93.1076 6.6 93.8276 6.968C94.5636 7.336 95.1396 7.832 95.5556 8.456V2.24H99.6596V20H95.5556V18.08C95.1716 18.72 94.6196 19.232 93.8996 19.616C93.1956 20 92.3716 20.192 91.4276 20.192C90.3236 20.192 89.3236 19.912 88.4276 19.352C87.5316 18.776 86.8196 17.968 86.2916 16.928C85.7796 15.872 85.5236 14.656 85.5236 13.28ZM95.5556 13.304C95.5556 12.28 95.2676 11.472 94.6916 10.88C94.1316 10.288 93.4436 9.992 92.6276 9.992C91.8116 9.992 91.1156 10.288 90.5396 10.88C89.9796 11.456 89.6996 12.256 89.6996 13.28C89.6996 14.304 89.9796 15.12 90.5396 15.728C91.1156 16.32 91.8116 16.616 92.6276 16.616C93.4436 16.616 94.1316 16.32 94.6916 15.728C95.2676 15.136 95.5556 14.328 95.5556 13.304ZM108.077 20.192C106.909 20.192 105.869 19.992 104.957 19.592C104.045 19.192 103.325 18.648 102.797 17.96C102.269 17.256 101.973 16.472 101.909 15.608H105.965C106.013 16.072 106.229 16.448 106.613 16.736C106.997 17.024 107.469 17.168 108.029 17.168C108.541 17.168 108.933 17.072 109.205 16.88C109.493 16.672 109.637 16.408 109.637 16.088C109.637 15.704 109.437 15.424 109.037 15.248C108.637 15.056 107.989 14.848 107.093 14.624C106.133 14.4 105.333 14.168 104.693 13.928C104.053 13.672 103.501 13.28 103.037 12.752C102.573 12.208 102.341 11.48 102.341 10.568C102.341 9.8 102.549 9.104 102.965 8.48C103.397 7.84 104.021 7.336 104.837 6.968C105.669 6.6 106.653 6.416 107.789 6.416C109.469 6.416 110.789 6.832 111.749 7.664C112.725 8.496 113.285 9.6 113.429 10.976H109.637C109.573 10.512 109.365 10.144 109.013 9.872C108.677 9.6 108.229 9.464 107.669 9.464C107.189 9.464 106.821 9.56 106.565 9.752C106.309 9.928 106.181 10.176 106.181 10.496C106.181 10.88 106.381 11.168 106.781 11.36C107.197 11.552 107.837 11.744 108.701 11.936C109.693 12.192 110.501 12.448 111.125 12.704C111.749 12.944 112.293 13.344 112.757 13.904C113.237 14.448 113.485 15.184 113.501 16.112C113.501 16.896 113.277 17.6 112.829 18.224C112.397 18.832 111.765 19.312 110.933 19.664C110.117 20.016 109.165 20.192 108.077 20.192ZM120.115 8.504C120.515 7.88 121.067 7.376 121.771 6.992C122.475 6.608 123.299 6.416 124.243 6.416C125.347 6.416 126.347 6.696 127.243 7.256C128.139 7.816 128.843 8.616 129.355 9.656C129.883 10.696 130.147 11.904 130.147 13.28C130.147 14.656 129.883 15.872 129.355 16.928C128.843 17.968 128.139 18.776 127.243 19.352C126.347 19.912 125.347 20.192 124.243 20.192C123.315 20.192 122.491 20 121.771 19.616C121.067 19.232 120.515 18.736 120.115 18.128V26.384H116.011V6.608H120.115V8.504ZM125.971 13.28C125.971 12.256 125.683 11.456 125.107 10.88C124.547 10.288 123.851 9.992 123.019 9.992C122.203 9.992 121.507 10.288 120.931 10.88C120.371 11.472 120.091 12.28 120.091 13.304C120.091 14.328 120.371 15.136 120.931 15.728C121.507 16.32 122.203 16.616 123.019 16.616C123.835 16.616 124.531 16.32 125.107 15.728C125.683 15.12 125.971 14.304 125.971 13.28ZM131.485 13.28C131.485 11.904 131.741 10.696 132.253 9.656C132.781 8.616 133.493 7.816 134.389 7.256C135.285 6.696 136.285 6.416 137.389 6.416C138.333 6.416 139.157 6.608 139.861 6.992C140.581 7.376 141.133 7.88 141.517 8.504V6.608H145.621V20H141.517V18.104C141.117 18.728 140.557 19.232 139.837 19.616C139.133 20 138.309 20.192 137.365 20.192C136.277 20.192 135.285 19.912 134.389 19.352C133.493 18.776 132.781 17.968 132.253 16.928C131.741 15.872 131.485 14.656 131.485 13.28ZM141.517 13.304C141.517 12.28 141.229 11.472 140.653 10.88C140.093 10.288 139.405 9.992 138.589 9.992C137.773 9.992 137.077 10.288 136.501 10.88C135.941 11.456 135.661 12.256 135.661 13.28C135.661 14.304 135.941 15.12 136.501 15.728C137.077 16.32 137.773 16.616 138.589 16.616C139.405 16.616 140.093 16.32 140.653 15.728C141.229 15.136 141.517 14.328 141.517 13.304ZM147.774 13.304C147.774 11.912 148.054 10.696 148.614 9.656C149.19 8.616 149.982 7.816 150.99 7.256C152.014 6.696 153.182 6.416 154.494 6.416C156.174 6.416 157.574 6.856 158.694 7.736C159.83 8.616 160.574 9.856 160.926 11.456H156.558C156.19 10.432 155.478 9.92 154.422 9.92C153.67 9.92 153.07 10.216 152.622 10.808C152.174 11.384 151.95 12.216 151.95 13.304C151.95 14.392 152.174 15.232 152.622 15.824C153.07 16.4 153.67 16.688 154.422 16.688C155.478 16.688 156.19 16.176 156.558 15.152H160.926C160.574 16.72 159.83 17.952 158.694 18.848C157.558 19.744 156.158 20.192 154.494 20.192C153.182 20.192 152.014 19.912 150.99 19.352C149.982 18.792 149.19 17.992 148.614 16.952C148.054 15.912 147.774 14.696 147.774 13.304ZM175.745 13.088C175.745 13.472 175.721 13.872 175.673 14.288H166.385C166.449 15.12 166.713 15.76 167.177 16.208C167.657 16.64 168.241 16.856 168.929 16.856C169.953 16.856 170.665 16.424 171.065 15.56H175.433C175.209 16.44 174.801 17.232 174.209 17.936C173.633 18.64 172.905 19.192 172.025 19.592C171.145 19.992 170.161 20.192 169.073 20.192C167.761 20.192 166.593 19.912 165.569 19.352C164.545 18.792 163.745 17.992 163.169 16.952C162.593 15.912 162.305 14.696 162.305 13.304C162.305 11.912 162.585 10.696 163.145 9.656C163.721 8.616 164.521 7.816 165.545 7.256C166.569 6.696 167.745 6.416 169.073 6.416C170.369 6.416 171.521 6.688 172.529 7.232C173.537 7.776 174.321 8.552 174.881 9.56C175.457 10.568 175.745 11.744 175.745 13.088ZM171.545 12.008C171.545 11.304 171.305 10.744 170.825 10.328C170.345 9.912 169.745 9.704 169.025 9.704C168.337 9.704 167.753 9.904 167.273 10.304C166.809 10.704 166.521 11.272 166.409 12.008H171.545Z" fill="#FF6F61"/>
</svg>
